<mxfile host="65bd71144e">
    <diagram id="e1iuhK-Q76lF7smDS1ch" name="第 1 页">
        <mxGraphModel dx="363" dy="505" grid="1" gridSize="10" guides="1" tooltips="1" connect="1" arrows="1" fold="1" page="1" pageScale="1" pageWidth="850" pageHeight="1100" math="0" shadow="0">
            <root>
                <mxCell id="0"/>
                <mxCell id="1" parent="0"/>
                <mxCell id="2" value="" style="rounded=0;whiteSpace=wrap;html=1;" parent="1" vertex="1">
                    <mxGeometry x="80" y="160" width="400" height="80" as="geometry"/>
                </mxCell>
                <mxCell id="3" value="flag: false&lt;br&gt;fn: fn1" style="rounded=0;whiteSpace=wrap;html=1;" parent="1" vertex="1">
                    <mxGeometry x="90" y="170" width="60" height="60" as="geometry"/>
                </mxCell>
                <mxCell id="4" value="" style="rounded=0;whiteSpace=wrap;html=1;" vertex="1" parent="1">
                    <mxGeometry x="80" y="280" width="400" height="80" as="geometry"/>
                </mxCell>
                <mxCell id="5" value="flag: false&lt;br&gt;fn: fn1" style="rounded=0;whiteSpace=wrap;html=1;" vertex="1" parent="1">
                    <mxGeometry x="170" y="170" width="60" height="60" as="geometry"/>
                </mxCell>
                <mxCell id="6" value="flag: false&lt;br&gt;fn: fn1" style="rounded=0;whiteSpace=wrap;html=1;" vertex="1" parent="1">
                    <mxGeometry x="250" y="170" width="60" height="60" as="geometry"/>
                </mxCell>
                <mxCell id="7" value="flag: false&lt;br&gt;fn: fn1" style="rounded=0;whiteSpace=wrap;html=1;" vertex="1" parent="1">
                    <mxGeometry x="330" y="170" width="60" height="60" as="geometry"/>
                </mxCell>
                <mxCell id="8" value="flag: false&lt;br&gt;fn: fn1" style="rounded=0;whiteSpace=wrap;html=1;" vertex="1" parent="1">
                    <mxGeometry x="410" y="170" width="60" height="60" as="geometry"/>
                </mxCell>
                <mxCell id="9" value="flag: false&lt;br&gt;fn: fn1" style="rounded=0;whiteSpace=wrap;html=1;" vertex="1" parent="1">
                    <mxGeometry x="90" y="290" width="60" height="60" as="geometry"/>
                </mxCell>
            </root>
        </mxGraphModel>
    </diagram>
</mxfile>